<svg xmlns="http://www.w3.org/2000/svg" viewBox="0 0 1078 1062" width="1078" height="1062" preserveAspectRatio="xMidYMid meet" style="width: 100%; height: 100%; transform: translate3d(0px, 0px, 0px);"><defs><clipPath id="__lottie_element_2"><rect width="1078" height="1062" x="0" y="0"></rect></clipPath></defs><g clip-path="url(#__lottie_element_2)"><g transform="matrix(1,0,0,1,139,175)" opacity="1" style="display: block;"><g opacity="1" transform="matrix(1,0,0,1,398.343994140625,284.0249938964844)"><path fill="rgb(118,188,67)" fill-opacity="1" d=" M58.715999603271484,-33.025001525878906 C70.30599975585938,-25.774999618530273 73.3759994506836,-17.354999542236328 72.71600341796875,-8.835000038146973 C71.25599670410156,10.114999771118164 38.15599822998047,23.114999771118164 -8.284000396728516,22.385000228881836 C-13.053999900817871,22.385000228881836 -17.724000930786133,22.135000228881836 -22.284000396728516,21.764999389648438 C-22.284000396728516,21.764999389648438 -23.18400001525879,21.69499969482422 -23.18400001525879,21.69499969482422 C-47.9739990234375,19.795000076293945 -75.78399658203125,10.28499984741211 -92.40399932861328,2.934999942779541 C-77.40399932861328,15.824999809265137 -45.95399856567383,33.025001525878906 5.47599983215332,33.025001525878906 C51.15599822998047,33.025001525878906 88.41600036621094,24.514999389648438 92.08599853515625,0.35499998927116394 C95.8759994506836,-24.315000534057617 64.65599822998047,-32.45500183105469 58.715999603271484,-33.025001525878906z"></path></g><g opacity="1" transform="matrix(1,0,0,1,419.46600341796875,279.0429992675781)"><path fill="rgb(118,188,67)" fill-opacity="1" d=" M30.083999633789062,-19.243000030517578 C30.083999633789062,-19.243000030517578 37.92399978637695,-16.812999725341797 38.08399963378906,-7.243000030517578 C38.24399948120117,2.3269999027252197 30.804000854492188,25.617000579833984 -38.08599853515625,17.586999893188477 C-38.055999755859375,17.53700065612793 40.7239990234375,19.187000274658203 30.083999633789062,-19.243000030517578z"></path></g></g><g transform="matrix(1,0,0,1,538.0999755859375,211.41000366210938)" opacity="1" style="display: block;"><g opacity="1" transform="matrix(1,0,0,1,0,0)"><path fill="rgb(230,229,229)" fill-opacity="1" d=" M0,-159.5 C88.08899688720703,-159.5 159.5,-88.08899688720703 159.5,0 C159.5,88.08899688720703 88.08899688720703,159.5 0,159.5 C-88.08899688720703,159.5 -159.5,88.08899688720703 -159.5,0 C-159.5,-88.08899688720703 -88.08899688720703,-159.5 0,-159.5z"></path></g></g><g style="display: block;" transform="matrix(1,0,0,1,523.0650024414062,243.22500610351562)" opacity="1"><g opacity="1" transform="matrix(1,0,0,1,0,0)"><path stroke-linecap="round" stroke-linejoin="round" fill-opacity="0" stroke="rgb(84,86,91)" stroke-opacity="1" stroke-width="5.011" d=" M10.265000343322754,29.344999313354492 C10.265000343322754,29.344999313354492 -3.924999952316284,14.0649995803833 -3.924999952316284,14.0649995803833 C-3.924999952316284,14.0649995803833 -23.975000381469727,19.795000076293945 -23.975000381469727,19.795000076293945 C-23.975000381469727,19.795000076293945 -10.265000343322754,-29.344999313354492 -10.265000343322754,-29.344999313354492 C-10.265000343322754,-29.344999313354492 23.975000381469727,-19.795000076293945 23.975000381469727,-19.795000076293945 C23.975000381469727,-19.795000076293945 10.265000343322754,29.344999313354492 10.265000343322754,29.344999313354492z"></path></g></g><g style="display: block;" transform="matrix(1,0,0,1,560.3200073242188,243.22500610351562)" opacity="1"><g opacity="1" transform="matrix(1,0,0,1,0,0)"><path stroke-linecap="round" stroke-linejoin="round" fill-opacity="0" stroke="rgb(84,86,91)" stroke-opacity="1" stroke-width="5.011" d=" M-10.270000457763672,29.344999313354492 C-10.270000457763672,29.344999313354492 3.9200000762939453,14.0649995803833 3.9200000762939453,14.0649995803833 C3.9200000762939453,14.0649995803833 23.969999313354492,19.795000076293945 23.969999313354492,19.795000076293945 C23.969999313354492,19.795000076293945 10.270000457763672,-29.344999313354492 10.270000457763672,-29.344999313354492 C10.270000457763672,-29.344999313354492 -23.969999313354492,-19.795000076293945 -23.969999313354492,-19.795000076293945 C-23.969999313354492,-19.795000076293945 -10.270000457763672,29.344999313354492 -10.270000457763672,29.344999313354492z"></path></g></g><g transform="matrix(1,0,0,1,142,220)" opacity="1" style="display: block;"><g opacity="1" transform="matrix(1,0,0,1,399.0899963378906,-34.41699981689453)"><path fill="rgb(255,255,255)" fill-opacity="1" d=" M5.090000152587891,-54.452999114990234 C5.090000152587891,-54.452999114990234 12.5600004196167,-48.2130012512207 12.5600004196167,-48.2130012512207 C14.130000114440918,-46.91400146484375 16.13599967956543,-46.26300048828125 18.170000076293945,-46.393001556396484 C18.170000076293945,-46.393001556396484 27.8799991607666,-47.042999267578125 27.8799991607666,-47.042999267578125 C31.714000701904297,-47.30500030517578 35.180999755859375,-44.77399826049805 36.099998474121094,-41.042999267578125 C36.099998474121094,-41.042999267578125 38.47999954223633,-31.60300064086914 38.47999954223633,-31.60300064086914 C38.98699951171875,-29.628999710083008 40.22800064086914,-27.92300033569336 41.95000076293945,-26.83300018310547 C41.95000076293945,-26.83300018310547 50.189998626708984,-21.652999877929688 50.189998626708984,-21.652999877929688 C53.43600082397461,-19.615999221801758 54.757999420166016,-15.548999786376953 53.33000183105469,-11.993000030517578 C53.33000183105469,-11.993000030517578 49.709999084472656,-2.993000030517578 49.709999084472656,-2.993000030517578 C48.95000076293945,-1.100000023841858 48.95000076293945,1.0140000581741333 49.709999084472656,2.9070000648498535 C49.709999084472656,2.9070000648498535 53.33000183105469,11.906999588012695 53.33000183105469,11.906999588012695 C54.76300048828125,15.46500015258789 53.439998626708984,19.540000915527344 50.189998626708984,21.57699966430664 C50.189998626708984,21.57699966430664 41.90999984741211,26.78700065612793 41.90999984741211,26.78700065612793 C40.18199920654297,27.875 38.93899917602539,29.586999893188477 38.439998626708984,31.566999435424805 C38.439998626708984,31.566999435424805 36.060001373291016,40.99700164794922 36.060001373291016,40.99700164794922 C35.13399887084961,44.722999572753906 31.67099952697754,47.250999450683594 27.84000015258789,46.99700164794922 C27.84000015258789,46.99700164794922 18.1299991607666,46.33700180053711 18.1299991607666,46.33700180053711 C16.094999313354492,46.209999084472656 14.088000297546387,46.86399841308594 12.520000457763672,48.16699981689453 C12.520000457763672,48.16699981689453 5.090000152587891,54.41699981689453 5.090000152587891,54.41699981689453 C2.1459999084472656,56.887001037597656 -2.1459999084472656,56.887001037597656 -5.090000152587891,54.41699981689453 C-5.090000152587891,54.41699981689453 -12.5600004196167,48.1870002746582 -12.5600004196167,48.1870002746582 C-14.130999565124512,46.88199996948242 -16.142000198364258,46.22700119018555 -18.18000030517578,46.356998443603516 C-18.18000030517578,46.356998443603516 -27.889999389648438,47.016998291015625 -27.889999389648438,47.016998291015625 C-31.719999313354492,47.266998291015625 -35.18000030517578,44.74100112915039 -36.11000061035156,41.016998291015625 C-36.11000061035156,41.016998291015625 -38.4900016784668,31.586999893188477 -38.4900016784668,31.586999893188477 C-38.98899841308594,29.60700035095215 -40.231998443603516,27.895000457763672 -41.959999084472656,26.80699920654297 C-41.959999084472656,26.80699920654297 -50.189998626708984,21.636999130249023 -50.189998626708984,21.636999130249023 C-53.439998626708984,19.600000381469727 -54.76300048828125,15.524999618530273 -53.33000183105469,11.967000007629395 C-53.33000183105469,11.967000007629395 -49.709999084472656,2.9670000076293945 -49.709999084472656,2.9670000076293945 C-48.95000076293945,1.0740000009536743 -48.95000076293945,-1.0399999618530273 -49.709999084472656,-2.933000087738037 C-49.709999084472656,-2.933000087738037 -53.33000183105469,-11.932999610900879 -53.33000183105469,-11.932999610900879 C-54.757999420166016,-15.48900032043457 -53.43600082397461,-19.555999755859375 -50.189998626708984,-21.593000411987305 C-50.189998626708984,-21.593000411987305 -41.959999084472656,-26.773000717163086 -41.959999084472656,-26.773000717163086 C-40.237998962402344,-27.863000869750977 -38.99700164794922,-29.569000244140625 -38.4900016784668,-31.542999267578125 C-38.4900016784668,-31.542999267578125 -36.11000061035156,-40.983001708984375 -36.11000061035156,-40.983001708984375 C-35.1870002746582,-44.71200180053711 -31.722000122070312,-47.24100112915039 -27.889999389648438,-46.983001708984375 C-27.889999389648438,-46.983001708984375 -18.18000030517578,-46.33300018310547 -18.18000030517578,-46.33300018310547 C-16.14299964904785,-46.20000076293945 -14.133000373840332,-46.85200119018555 -12.5600004196167,-48.15299987792969 C-12.5600004196167,-48.15299987792969 -5.090000152587891,-54.393001556396484 -5.090000152587891,-54.393001556396484 C-2.1579999923706055,-56.87200164794922 2.128999948501587,-56.89699935913086 5.090000152587891,-54.452999114990234z"></path><path stroke-linecap="round" stroke-linejoin="round" fill-opacity="0" stroke="rgb(84,86,91)" stroke-opacity="1" stroke-width="5.011" d=" M5.090000152587891,-54.452999114990234 C5.090000152587891,-54.452999114990234 12.5600004196167,-48.2130012512207 12.5600004196167,-48.2130012512207 C14.130000114440918,-46.91400146484375 16.13599967956543,-46.26300048828125 18.170000076293945,-46.393001556396484 C18.170000076293945,-46.393001556396484 27.8799991607666,-47.042999267578125 27.8799991607666,-47.042999267578125 C31.714000701904297,-47.30500030517578 35.180999755859375,-44.77399826049805 36.099998474121094,-41.042999267578125 C36.099998474121094,-41.042999267578125 38.47999954223633,-31.60300064086914 38.47999954223633,-31.60300064086914 C38.98699951171875,-29.628999710083008 40.22800064086914,-27.92300033569336 41.95000076293945,-26.83300018310547 C41.95000076293945,-26.83300018310547 50.189998626708984,-21.652999877929688 50.189998626708984,-21.652999877929688 C53.43600082397461,-19.615999221801758 54.757999420166016,-15.548999786376953 53.33000183105469,-11.993000030517578 C53.33000183105469,-11.993000030517578 49.709999084472656,-2.993000030517578 49.709999084472656,-2.993000030517578 C48.95000076293945,-1.100000023841858 48.95000076293945,1.0140000581741333 49.709999084472656,2.9070000648498535 C49.709999084472656,2.9070000648498535 53.33000183105469,11.906999588012695 53.33000183105469,11.906999588012695 C54.76300048828125,15.46500015258789 53.439998626708984,19.540000915527344 50.189998626708984,21.57699966430664 C50.189998626708984,21.57699966430664 41.90999984741211,26.78700065612793 41.90999984741211,26.78700065612793 C40.18199920654297,27.875 38.93899917602539,29.586999893188477 38.439998626708984,31.566999435424805 C38.439998626708984,31.566999435424805 36.060001373291016,40.99700164794922 36.060001373291016,40.99700164794922 C35.13399887084961,44.722999572753906 31.67099952697754,47.250999450683594 27.84000015258789,46.99700164794922 C27.84000015258789,46.99700164794922 18.1299991607666,46.33700180053711 18.1299991607666,46.33700180053711 C16.094999313354492,46.209999084472656 14.088000297546387,46.86399841308594 12.520000457763672,48.16699981689453 C12.520000457763672,48.16699981689453 5.090000152587891,54.41699981689453 5.090000152587891,54.41699981689453 C2.1459999084472656,56.887001037597656 -2.1459999084472656,56.887001037597656 -5.090000152587891,54.41699981689453 C-5.090000152587891,54.41699981689453 -12.5600004196167,48.1870002746582 -12.5600004196167,48.1870002746582 C-14.130999565124512,46.88199996948242 -16.142000198364258,46.22700119018555 -18.18000030517578,46.356998443603516 C-18.18000030517578,46.356998443603516 -27.889999389648438,47.016998291015625 -27.889999389648438,47.016998291015625 C-31.719999313354492,47.266998291015625 -35.18000030517578,44.74100112915039 -36.11000061035156,41.016998291015625 C-36.11000061035156,41.016998291015625 -38.4900016784668,31.586999893188477 -38.4900016784668,31.586999893188477 C-38.98899841308594,29.60700035095215 -40.231998443603516,27.895000457763672 -41.959999084472656,26.80699920654297 C-41.959999084472656,26.80699920654297 -50.189998626708984,21.636999130249023 -50.189998626708984,21.636999130249023 C-53.439998626708984,19.600000381469727 -54.76300048828125,15.524999618530273 -53.33000183105469,11.967000007629395 C-53.33000183105469,11.967000007629395 -49.709999084472656,2.9670000076293945 -49.709999084472656,2.9670000076293945 C-48.95000076293945,1.0740000009536743 -48.95000076293945,-1.0399999618530273 -49.709999084472656,-2.933000087738037 C-49.709999084472656,-2.933000087738037 -53.33000183105469,-11.932999610900879 -53.33000183105469,-11.932999610900879 C-54.757999420166016,-15.48900032043457 -53.43600082397461,-19.555999755859375 -50.189998626708984,-21.593000411987305 C-50.189998626708984,-21.593000411987305 -41.959999084472656,-26.773000717163086 -41.959999084472656,-26.773000717163086 C-40.237998962402344,-27.863000869750977 -38.99700164794922,-29.569000244140625 -38.4900016784668,-31.542999267578125 C-38.4900016784668,-31.542999267578125 -36.11000061035156,-40.983001708984375 -36.11000061035156,-40.983001708984375 C-35.1870002746582,-44.71200180053711 -31.722000122070312,-47.24100112915039 -27.889999389648438,-46.983001708984375 C-27.889999389648438,-46.983001708984375 -18.18000030517578,-46.33300018310547 -18.18000030517578,-46.33300018310547 C-16.14299964904785,-46.20000076293945 -14.133000373840332,-46.85200119018555 -12.5600004196167,-48.15299987792969 C-12.5600004196167,-48.15299987792969 -5.090000152587891,-54.393001556396484 -5.090000152587891,-54.393001556396484 C-2.1579999923706055,-56.87200164794922 2.128999948501587,-56.89699935913086 5.090000152587891,-54.452999114990234z"></path></g><g opacity="1" transform="matrix(1,0,0,1,399.1000061035156,-34.45000076293945)"><path fill="rgb(255,255,255)" fill-opacity="1" d=" M0,-30.239999771118164 C16.701000213623047,-30.239999771118164 30.239999771118164,-16.701000213623047 30.239999771118164,0 C30.239999771118164,16.701000213623047 16.701000213623047,30.239999771118164 0,30.239999771118164 C-16.701000213623047,30.239999771118164 -30.239999771118164,16.701000213623047 -30.239999771118164,0 C-30.239999771118164,-16.701000213623047 -16.701000213623047,-30.239999771118164 0,-30.239999771118164z"></path><path stroke-linecap="round" stroke-linejoin="round" fill-opacity="0" stroke="rgb(118,188,67)" stroke-opacity="1" stroke-width="5.011" d=" M0,-30.239999771118164 C16.701000213623047,-30.239999771118164 30.239999771118164,-16.701000213623047 30.239999771118164,0 C30.239999771118164,16.701000213623047 16.701000213623047,30.239999771118164 0,30.239999771118164 C-16.701000213623047,30.239999771118164 -30.239999771118164,16.701000213623047 -30.239999771118164,0 C-30.239999771118164,-16.701000213623047 -16.701000213623047,-30.239999771118164 0,-30.239999771118164z"></path></g></g><g style="display: block;" transform="matrix(1,0,0,1,139,175)" opacity="1"><g opacity="1" transform="matrix(1,0,0,1,571.5800170898438,155.3000030517578)"><path fill="rgb(118,119,123)" fill-opacity="1" d=" M0,-18.139999389648438 C10.017999649047852,-18.139999389648438 18.139999389648438,-10.017999649047852 18.139999389648438,0 C18.139999389648438,10.017999649047852 10.017999649047852,18.139999389648438 0,18.139999389648438 C-10.017999649047852,18.139999389648438 -18.139999389648438,10.017999649047852 -18.139999389648438,0 C-18.139999389648438,-10.017999649047852 -10.017999649047852,-18.139999389648438 0,-18.139999389648438z"></path></g><g opacity="1" transform="matrix(1,0,0,1,569.7349853515625,153.93499755859375)"><path stroke-linecap="round" stroke-linejoin="round" fill-opacity="0" stroke="rgb(255,255,255)" stroke-opacity="1" stroke-width="2.88" d=" M5.985000133514404,-8.395000457763672 C5.985000133514404,-8.395000457763672 7.764999866485596,6.545000076293945 7.764999866485596,6.545000076293945 C7.764999866485596,6.545000076293945 -7.764999866485596,8.395000457763672 -7.764999866485596,8.395000457763672"></path></g></g><g style="display: block;" transform="matrix(1,0,0,1,880.489990234375,458.55999755859375)" opacity="1"><g opacity="1" transform="matrix(1,0,0,1,0,0)"><path fill="rgb(230,229,229)" fill-opacity="1" d=" M0,-159.5 C88.08899688720703,-159.5 159.5,-88.08899688720703 159.5,0 C159.5,88.08899688720703 88.08899688720703,159.5 0,159.5 C-88.08899688720703,159.5 -159.5,88.08899688720703 -159.5,0 C-159.5,-88.08899688720703 -88.08899688720703,-159.5 0,-159.5z"></path></g></g><g style="display: block;" transform="matrix(1,0,0,1,879.4949951171875,454.93499755859375)" opacity="1"><g opacity="1" transform="matrix(1,0,0,1,0,0)"><path stroke-linecap="round" stroke-linejoin="round" fill-opacity="0" stroke="rgb(84,86,91)" stroke-opacity="1" stroke-width="5.011" d=" M65.95500183105469,45.8650016784668 C65.95500183105469,45.8650016784668 -65.95500183105469,45.8650016784668 -65.95500183105469,45.8650016784668 C-65.95500183105469,45.8650016784668 -65.95500183105469,-45.8650016784668 -65.95500183105469,-45.8650016784668"></path></g></g><g style="display: block;" transform="matrix(1,0,0,1,886.4599609375,452.94500732421875)" opacity="1"><g opacity="1" transform="matrix(1,0,0,1,0,0)"><path stroke-linecap="round" stroke-linejoin="round" fill-opacity="0" stroke="rgb(84,86,91)" stroke-opacity="1" stroke-width="5.011" d=" M-49.869998931884766,25.975000381469727 C-49.869998931884766,25.975000381469727 -19.440000534057617,2.7950000762939453 -19.440000534057617,2.7950000762939453 C-19.440000534057617,2.7950000762939453 21.020000457763672,0.5649999976158142 21.020000457763672,0.5649999976158142 C21.020000457763672,0.5649999976158142 49.869998931884766,-25.975000381469727 49.869998931884766,-25.975000381469727"></path></g></g><g style="display: block;" transform="matrix(1,0,0,1,836.5899658203125,478.91998291015625)" opacity="1"><g opacity="1" transform="matrix(1,0,0,1,0,0)"><path fill="rgb(255,255,255)" fill-opacity="1" d=" M0,-8.020000457763672 C4.428999900817871,-8.020000457763672 8.020000457763672,-4.428999900817871 8.020000457763672,0 C8.020000457763672,4.428999900817871 4.428999900817871,8.020000457763672 0,8.020000457763672 C-4.428999900817871,8.020000457763672 -8.020000457763672,4.428999900817871 -8.020000457763672,0 C-8.020000457763672,-4.428999900817871 -4.428999900817871,-8.020000457763672 0,-8.020000457763672z"></path><path stroke-linecap="round" stroke-linejoin="round" fill-opacity="0" stroke="rgb(118,188,67)" stroke-opacity="1" stroke-width="5.011" d=" M0,-8.020000457763672 C4.428999900817871,-8.020000457763672 8.020000457763672,-4.428999900817871 8.020000457763672,0 C8.020000457763672,4.428999900817871 4.428999900817871,8.020000457763672 0,8.020000457763672 C-4.428999900817871,8.020000457763672 -8.020000457763672,4.428999900817871 -8.020000457763672,0 C-8.020000457763672,-4.428999900817871 -4.428999900817871,-8.020000457763672 0,-8.020000457763672z"></path></g></g><g style="display: block;" transform="matrix(1,0,0,1,867.030029296875,455.739990234375)" opacity="1"><g opacity="1" transform="matrix(1,0,0,1,0,0)"><path fill="rgb(255,255,255)" fill-opacity="1" d=" M0,-8.020000457763672 C4.428999900817871,-8.020000457763672 8.020000457763672,-4.428999900817871 8.020000457763672,0 C8.020000457763672,4.428999900817871 4.428999900817871,8.020000457763672 0,8.020000457763672 C-4.428999900817871,8.020000457763672 -8.020000457763672,4.428999900817871 -8.020000457763672,0 C-8.020000457763672,-4.428999900817871 -4.428999900817871,-8.020000457763672 0,-8.020000457763672z"></path><path stroke-linecap="round" stroke-linejoin="round" fill-opacity="0" stroke="rgb(118,188,67)" stroke-opacity="1" stroke-width="5.011" d=" M0,-8.020000457763672 C4.428999900817871,-8.020000457763672 8.020000457763672,-4.428999900817871 8.020000457763672,0 C8.020000457763672,4.428999900817871 4.428999900817871,8.020000457763672 0,8.020000457763672 C-4.428999900817871,8.020000457763672 -8.020000457763672,4.428999900817871 -8.020000457763672,0 C-8.020000457763672,-4.428999900817871 -4.428999900817871,-8.020000457763672 0,-8.020000457763672z"></path></g></g><g style="display: block;" transform="matrix(1,0,0,1,907.97998046875,452.94000244140625)" opacity="1"><g opacity="1" transform="matrix(1,0,0,1,0,0)"><path fill="rgb(255,255,255)" fill-opacity="1" d=" M0,-8.020000457763672 C4.428999900817871,-8.020000457763672 8.020000457763672,-4.428999900817871 8.020000457763672,0 C8.020000457763672,4.428999900817871 4.428999900817871,8.020000457763672 0,8.020000457763672 C-4.428999900817871,8.020000457763672 -8.020000457763672,4.428999900817871 -8.020000457763672,0 C-8.020000457763672,-4.428999900817871 -4.428999900817871,-8.020000457763672 0,-8.020000457763672z"></path><path stroke-linecap="round" stroke-linejoin="round" fill-opacity="0" stroke="rgb(118,188,67)" stroke-opacity="1" stroke-width="5.011" d=" M0,-8.020000457763672 C4.428999900817871,-8.020000457763672 8.020000457763672,-4.428999900817871 8.020000457763672,0 C8.020000457763672,4.428999900817871 4.428999900817871,8.020000457763672 0,8.020000457763672 C-4.428999900817871,8.020000457763672 -8.020000457763672,4.428999900817871 -8.020000457763672,0 C-8.020000457763672,-4.428999900817871 -4.428999900817871,-8.020000457763672 0,-8.020000457763672z"></path></g></g><g style="display: block;" transform="matrix(1,0,0,1,936.3299560546875,426.9700012207031)" opacity="1"><g opacity="1" transform="matrix(1,0,0,1,0,0)"><path fill="rgb(255,255,255)" fill-opacity="1" d=" M0,-8.020000457763672 C4.428999900817871,-8.020000457763672 8.020000457763672,-4.428999900817871 8.020000457763672,0 C8.020000457763672,4.428999900817871 4.428999900817871,8.020000457763672 0,8.020000457763672 C-4.428999900817871,8.020000457763672 -8.020000457763672,4.428999900817871 -8.020000457763672,0 C-8.020000457763672,-4.428999900817871 -4.428999900817871,-8.020000457763672 0,-8.020000457763672z"></path><path stroke-linecap="round" stroke-linejoin="round" fill-opacity="0" stroke="rgb(118,188,67)" stroke-opacity="1" stroke-width="5.011" d=" M0,-8.020000457763672 C4.428999900817871,-8.020000457763672 8.020000457763672,-4.428999900817871 8.020000457763672,0 C8.020000457763672,4.428999900817871 4.428999900817871,8.020000457763672 0,8.020000457763672 C-4.428999900817871,8.020000457763672 -8.020000457763672,4.428999900817871 -8.020000457763672,0 C-8.020000457763672,-4.428999900817871 -4.428999900817871,-8.020000457763672 0,-8.020000457763672z"></path></g></g><g style="display: block;" transform="matrix(1,0,0,1,139,175)" opacity="1"><g opacity="1" transform="matrix(1,0,0,1,690.1400146484375,478.44000244140625)"><path fill="rgb(118,119,123)" fill-opacity="1" d=" M0,-18.139999389648438 C10.017999649047852,-18.139999389648438 18.139999389648438,-10.017999649047852 18.139999389648438,0 C18.139999389648438,10.017999649047852 10.017999649047852,18.139999389648438 0,18.139999389648438 C-10.017999649047852,18.139999389648438 -18.139999389648438,10.017999649047852 -18.139999389648438,0 C-18.139999389648438,-10.017999649047852 -10.017999649047852,-18.139999389648438 0,-18.139999389648438z"></path></g><g opacity="1" transform="matrix(1,0,0,1,690.2249755859375,479.3500061035156)"><path stroke-linecap="round" stroke-linejoin="round" fill-opacity="0" stroke="rgb(255,255,255)" stroke-opacity="1" stroke-width="2.88" d=" M10.515000343322754,-1.2799999713897705 C10.515000343322754,-1.2799999713897705 -2.2750000953674316,6.650000095367432 -2.2750000953674316,6.650000095367432 C-2.2750000953674316,6.650000095367432 -10.515000343322754,-6.650000095367432 -10.515000343322754,-6.650000095367432"></path></g></g><g style="display: block;" transform="matrix(1,0,0,1,756.8300170898438,841.3800048828125)" opacity="1"><g opacity="1" transform="matrix(1,0,0,1,0,0)"><path fill="rgb(230,229,229)" fill-opacity="1" d=" M0,-159.5 C88.08899688720703,-159.5 159.5,-88.08899688720703 159.5,0 C159.5,88.08899688720703 88.08899688720703,159.5 0,159.5 C-88.08899688720703,159.5 -159.5,88.08899688720703 -159.5,0 C-159.5,-88.08899688720703 -88.08899688720703,-159.5 0,-159.5z"></path></g></g><g style="display: block;" transform="matrix(1,0,0,1,142,211.00003051757812)" opacity="1"><g opacity="1" transform="matrix(1,0,0,1,610.4249877929688,628.594970703125)"><path fill="rgb(255,255,255)" fill-opacity="1" d=" M46.29499816894531,59.904998779296875 C46.29499816894531,59.904998779296875 -46.29499816894531,59.904998779296875 -46.29499816894531,59.904998779296875 C-46.29499816894531,59.904998779296875 -46.29499816894531,-38.85499954223633 -46.29499816894531,-38.85499954223633 C-46.29499816894531,-38.85499954223633 -25.2450008392334,-59.904998779296875 -25.2450008392334,-59.904998779296875 C-25.2450008392334,-59.904998779296875 46.29499816894531,-59.904998779296875 46.29499816894531,-59.904998779296875 C46.29499816894531,-59.904998779296875 46.29499816894531,59.904998779296875 46.29499816894531,59.904998779296875z"></path><path stroke-linecap="round" stroke-linejoin="round" fill-opacity="0" stroke="rgb(84,86,91)" stroke-opacity="1" stroke-width="5.011" d=" M46.29499816894531,59.904998779296875 C46.29499816894531,59.904998779296875 -46.29499816894531,59.904998779296875 -46.29499816894531,59.904998779296875 C-46.29499816894531,59.904998779296875 -46.29499816894531,-38.85499954223633 -46.29499816894531,-38.85499954223633 C-46.29499816894531,-38.85499954223633 -25.2450008392334,-59.904998779296875 -25.2450008392334,-59.904998779296875 C-25.2450008392334,-59.904998779296875 46.29499816894531,-59.904998779296875 46.29499816894531,-59.904998779296875 C46.29499816894531,-59.904998779296875 46.29499816894531,59.904998779296875 46.29499816894531,59.904998779296875z"></path></g><g opacity="1" transform="matrix(1,0,0,1,600.3300170898438,604.47998046875)"><path stroke-linecap="round" stroke-linejoin="round" fill-opacity="0" stroke="rgb(84,86,91)" stroke-opacity="1" stroke-width="5.011" d=" M-19.06999969482422,0 C-19.06999969482422,0 19.06999969482422,0 19.06999969482422,0"></path></g><g opacity="1" transform="matrix(1,0,0,1,609.9000244140625,622.3200073242188)"><path stroke-linecap="round" stroke-linejoin="round" fill-opacity="0" stroke="rgb(84,86,91)" stroke-opacity="1" stroke-width="5.011" d=" M-28.639999389648438,0 C-28.639999389648438,0 28.639999389648438,0 28.639999389648438,0"></path></g><g opacity="1" transform="matrix(1,0,0,1,600.2750244140625,640.1599731445312)"><path stroke-linecap="round" stroke-linejoin="round" fill-opacity="0" stroke="rgb(84,86,91)" stroke-opacity="1" stroke-width="5.011" d=" M-19.014999389648438,0 C-19.014999389648438,0 19.014999389648438,0 19.014999389648438,0"></path></g><g opacity="1" transform="matrix(1,0,0,1,574.655029296875,579.2150268554688)"><path fill="rgb(255,255,255)" fill-opacity="1" d=" M10.524999618530273,-10.524999618530273 C10.524999618530273,-10.524999618530273 10.524999618530273,10.524999618530273 10.524999618530273,10.524999618530273 C10.524999618530273,10.524999618530273 -10.524999618530273,10.524999618530273 -10.524999618530273,10.524999618530273 C-10.524999618530273,10.524999618530273 10.524999618530273,-10.524999618530273 10.524999618530273,-10.524999618530273z"></path><path stroke-linecap="round" stroke-linejoin="round" fill-opacity="0" stroke="rgb(84,86,91)" stroke-opacity="1" stroke-width="5.011" d=" M10.524999618530273,-10.524999618530273 C10.524999618530273,-10.524999618530273 10.524999618530273,10.524999618530273 10.524999618530273,10.524999618530273 C10.524999618530273,10.524999618530273 -10.524999618530273,10.524999618530273 -10.524999618530273,10.524999618530273 C-10.524999618530273,10.524999618530273 10.524999618530273,-10.524999618530273 10.524999618530273,-10.524999618530273z"></path></g></g><g style="display: block;" transform="matrix(1,0,0,1,141.99996948242188,211)" opacity="1"><g opacity="1" transform="matrix(1,0,0,1,643.4000244140625,671.1099853515625)"><path fill="rgb(255,255,255)" fill-opacity="1" d=" M0,-28.1299991607666 C15.53600025177002,-28.1299991607666 28.1299991607666,-15.53600025177002 28.1299991607666,0 C28.1299991607666,15.53600025177002 15.53600025177002,28.1299991607666 0,28.1299991607666 C-15.53600025177002,28.1299991607666 -28.1299991607666,15.53600025177002 -28.1299991607666,0 C-28.1299991607666,-15.53600025177002 -15.53600025177002,-28.1299991607666 0,-28.1299991607666z"></path><path stroke-linecap="round" stroke-linejoin="round" fill-opacity="0" stroke="rgb(118,188,67)" stroke-opacity="1" stroke-width="5.011" d=" M0,-28.1299991607666 C15.53600025177002,-28.1299991607666 28.1299991607666,-15.53600025177002 28.1299991607666,0 C28.1299991607666,15.53600025177002 15.53600025177002,28.1299991607666 0,28.1299991607666 C-15.53600025177002,28.1299991607666 -28.1299991607666,15.53600025177002 -28.1299991607666,0 C-28.1299991607666,-15.53600025177002 -15.53600025177002,-28.1299991607666 0,-28.1299991607666z"></path></g><g opacity="1" transform="matrix(1,0,0,1,643.4000244140625,671.10498046875)"><path fill="rgb(255,255,255)" fill-opacity="1" d=" M-12.970000267028809,-0.48500001430511475 C-12.970000267028809,-0.48500001430511475 -4.329999923706055,10.005000114440918 -4.329999923706055,10.005000114440918 C-4.329999923706055,10.005000114440918 12.970000267028809,-10.005000114440918 12.970000267028809,-10.005000114440918"></path><path stroke-linecap="round" stroke-linejoin="round" fill-opacity="0" stroke="rgb(84,86,91)" stroke-opacity="1" stroke-width="5.011" d=" M-12.970000267028809,-0.48500001430511475 C-12.970000267028809,-0.48500001430511475 -4.329999923706055,10.005000114440918 -4.329999923706055,10.005000114440918 C-4.329999923706055,10.005000114440918 12.970000267028809,-10.005000114440918 12.970000267028809,-10.005000114440918"></path></g></g><g style="display: block;" transform="matrix(1,0,0,1,139,175)" opacity="1"><g opacity="1" transform="matrix(1,0,0,1,399.2099914550781,695.8200073242188)"><path fill="rgb(118,119,123)" fill-opacity="1" d=" M0,-18.139999389648438 C10.017999649047852,-18.139999389648438 18.139999389648438,-10.017999649047852 18.139999389648438,0 C18.139999389648438,10.017999649047852 10.017999649047852,18.139999389648438 0,18.139999389648438 C-10.017999649047852,18.139999389648438 -18.139999389648438,10.017999649047852 -18.139999389648438,0 C-18.139999389648438,-10.017999649047852 -10.017999649047852,-18.139999389648438 0,-18.139999389648438z"></path></g><g opacity="1" transform="matrix(1,0,0,1,397.1300048828125,694.9299926757812)"><path stroke-linecap="round" stroke-linejoin="round" fill-opacity="0" stroke="rgb(255,255,255)" stroke-opacity="1" stroke-width="2.88" d=" M5.78000020980835,10.819999694824219 C5.78000020980835,10.819999694824219 -5.78000020980835,1.190000057220459 -5.78000020980835,1.190000057220459 C-5.78000020980835,1.190000057220459 4.230000019073486,-10.819999694824219 4.230000019073486,-10.819999694824219"></path></g></g><g style="display: block;" transform="matrix(1,0,0,1,324.21002197265625,843.7000122070312)" opacity="1"><g opacity="1" transform="matrix(1,0,0,1,0,0)"><path fill="rgb(230,229,229)" fill-opacity="1" d=" M0,-159.5 C88.08899688720703,-159.5 159.5,-88.08899688720703 159.5,0 C159.5,88.08899688720703 88.08899688720703,159.5 0,159.5 C-88.08899688720703,159.5 -159.5,88.08899688720703 -159.5,0 C-159.5,-88.08899688720703 -88.08899688720703,-159.5 0,-159.5z"></path></g></g><g style="display: block;" transform="matrix(1,0,0,1,133,213)" opacity="1"><g opacity="1" transform="matrix(1,0,0,1,213.6580047607422,660.8270263671875)"><path fill="rgb(255,255,255)" fill-opacity="1" d=" M-23.642000198364258,-31.374000549316406 C-23.642000198364258,-31.374000549316406 -23.642000198364258,-31.374000549316406 -23.642000198364258,-31.374000549316406 C-19.334999084472656,-34.619998931884766 -13.211000442504883,-33.75699996948242 -9.96399974822998,-29.447999954223633 C-9.96399974822998,-29.447999954223633 25.56100082397461,17.69499969482422 25.56100082397461,17.69499969482422 C28.808000564575195,22.003999710083008 27.948999404907227,28.128000259399414 23.642000198364258,31.374000549316406 C23.642000198364258,31.374000549316406 23.642000198364258,31.374000549316406 23.642000198364258,31.374000549316406 C19.334999084472656,34.619998931884766 13.211000442504883,33.75699996948242 9.96399974822998,29.447999954223633 C9.96399974822998,29.447999954223633 -25.56100082397461,-17.69499969482422 -25.56100082397461,-17.69499969482422 C-28.808000564575195,-22.003999710083008 -27.948999404907227,-28.128000259399414 -23.642000198364258,-31.374000549316406z"></path><path stroke-linecap="round" stroke-linejoin="round" fill-opacity="0" stroke="rgb(84,86,91)" stroke-opacity="1" stroke-width="5.011" d=" M-23.642000198364258,-31.374000549316406 C-23.642000198364258,-31.374000549316406 -23.642000198364258,-31.374000549316406 -23.642000198364258,-31.374000549316406 C-19.334999084472656,-34.619998931884766 -13.211000442504883,-33.75699996948242 -9.96399974822998,-29.447999954223633 C-9.96399974822998,-29.447999954223633 25.56100082397461,17.69499969482422 25.56100082397461,17.69499969482422 C28.808000564575195,22.003999710083008 27.948999404907227,28.128000259399414 23.642000198364258,31.374000549316406 C23.642000198364258,31.374000549316406 23.642000198364258,31.374000549316406 23.642000198364258,31.374000549316406 C19.334999084472656,34.619998931884766 13.211000442504883,33.75699996948242 9.96399974822998,29.447999954223633 C9.96399974822998,29.447999954223633 -25.56100082397461,-17.69499969482422 -25.56100082397461,-17.69499969482422 C-28.808000564575195,-22.003999710083008 -27.948999404907227,-28.128000259399414 -23.642000198364258,-31.374000549316406z"></path></g><g opacity="1" transform="matrix(1,0,0,1,170.75399780273438,603.7360229492188)"><path fill="rgb(255,255,255)" fill-opacity="1" d=" M33.18600082397461,-25.016000747680664 C19.3700008392334,-43.345001220703125 -6.689000129699707,-47.00400161743164 -25.01799964904785,-33.1879997253418 C-43.34700012207031,-19.371999740600586 -47.00600051879883,6.686999797821045 -33.189998626708984,25.016000747680664 C-19.375999450683594,43.34199905395508 6.677000045776367,47.00299835205078 25.006000518798828,33.194000244140625 C43.33700180053711,19.389999389648438 47.007999420166016,-6.659999847412109 33.20399856567383,-24.992000579833984 C33.198001861572266,-25 33.19200134277344,-25.007999420166016 33.18600082397461,-25.016000747680664z M17.666000366210938,23.45400047302246 C4.7129998207092285,33.20899963378906 -13.694999694824219,30.615999221801758 -23.450000762939453,17.663000106811523 C-33.20500183105469,4.710000038146973 -30.61199951171875,-13.696999549865723 -17.659000396728516,-23.45199966430664 C-4.711999893188477,-33.20199966430664 13.687999725341797,-30.617000579833984 23.445999145507812,-17.676000595092773 C33.20899963378906,-4.729000091552734 30.62700080871582,13.680000305175781 17.68000030517578,23.44300079345703 C17.674999237060547,23.44700050354004 17.67099952697754,23.450000762939453 17.666000366210938,23.45400047302246z"></path></g><g opacity="1" transform="matrix(1,0,0,1,170.75,603.739990234375)"><path stroke-linecap="round" stroke-linejoin="round" fill-opacity="0" stroke="rgb(118,188,67)" stroke-opacity="1" stroke-width="5.011" d=" M0,-29.360000610351562 C16.21500015258789,-29.360000610351562 29.360000610351562,-16.21500015258789 29.360000610351562,0 C29.360000610351562,16.21500015258789 16.21500015258789,29.360000610351562 0,29.360000610351562 C-16.21500015258789,29.360000610351562 -29.360000610351562,16.21500015258789 -29.360000610351562,0 C-29.360000610351562,-16.21500015258789 -16.21500015258789,-29.360000610351562 0,-29.360000610351562z"></path></g><g opacity="1" transform="matrix(1,0,0,1,152.78399658203125,604.1649780273438)"><path fill="rgb(255,255,255)" fill-opacity="1" d=" M1.215999960899353,8.574999809265137 C-1.7510000467300415,3.302000045776367 -2.0190000534057617,-3.072000026702881 0.4959999918937683,-8.574999809265137"></path><path stroke-linecap="round" stroke-linejoin="round" fill-opacity="0" stroke="rgb(84,86,91)" stroke-opacity="1" stroke-width="5.011" d=" M1.215999960899353,8.574999809265137 C-1.7510000467300415,3.302000045776367 -2.0190000534057617,-3.072000026702881 0.4959999918937683,-8.574999809265137"></path></g><g opacity="1" transform="matrix(1,0,0,1,207.57000732421875,652.594970703125)"><path stroke-linecap="round" stroke-linejoin="round" fill-opacity="0" stroke="rgb(84,86,91)" stroke-opacity="1" stroke-width="5.011" d=" M-7.800000190734863,5.875 C-7.800000190734863,5.875 7.800000190734863,-5.875 7.800000190734863,-5.875"></path></g><g opacity="1" transform="matrix(1,0,0,1,170.75399780273438,603.5460205078125)"><path stroke-linecap="round" stroke-linejoin="round" fill-opacity="0" stroke="rgb(84,86,91)" stroke-opacity="1" stroke-width="5.011" d=" M33.18600082397461,-25.016000747680664 C19.3700008392334,-43.345001220703125 -6.689000129699707,-47.00400161743164 -25.01799964904785,-33.1879997253418 C-43.34700012207031,-19.371999740600586 -47.00600051879883,6.686999797821045 -33.189998626708984,25.016000747680664 C-19.375999450683594,43.34199905395508 6.677000045776367,47.00299835205078 25.006000518798828,33.194000244140625 C43.33700180053711,19.389999389648438 47.007999420166016,-6.659999847412109 33.20399856567383,-24.992000579833984 C33.198001861572266,-25 33.19200134277344,-25.007999420166016 33.18600082397461,-25.016000747680664z"></path></g></g><g style="display: block;" transform="matrix(1,0,0,1,139,175)" opacity="1"><g opacity="1" transform="matrix(1,0,0,1,113.8499984741211,478.1000061035156)"><path fill="rgb(118,119,123)" fill-opacity="1" d=" M0,-18.139999389648438 C10.017999649047852,-18.139999389648438 18.139999389648438,-10.017999649047852 18.139999389648438,0 C18.139999389648438,10.017999649047852 10.017999649047852,18.139999389648438 0,18.139999389648438 C-10.017999649047852,18.139999389648438 -18.139999389648438,10.017999649047852 -18.139999389648438,0 C-18.139999389648438,-10.017999649047852 -10.017999649047852,-18.139999389648438 0,-18.139999389648438z"></path></g><g opacity="1" transform="matrix(1,0,0,1,114.46499633789062,478.31500244140625)"><path stroke-linecap="round" stroke-linejoin="round" fill-opacity="0" stroke="rgb(255,255,255)" stroke-opacity="1" stroke-width="2.88" d=" M9.885000228881836,-1.7050000429153442 C9.885000228881836,-1.7050000429153442 -4.105000019073486,-7.264999866485596 -4.105000019073486,-7.264999866485596 C-4.105000019073486,-7.264999866485596 -9.885000228881836,7.264999866485596 -9.885000228881836,7.264999866485596"></path></g></g><g style="display: block;" transform="matrix(1,0,0,1,196.72000122070312,459.2799987792969)" opacity="1"><g opacity="1" transform="matrix(1,0,0,1,0,0)"><path fill="rgb(230,229,229)" fill-opacity="1" d=" M0,-159.5 C88.08899688720703,-159.5 159.5,-88.08899688720703 159.5,0 C159.5,88.08899688720703 88.08899688720703,159.5 0,159.5 C-88.08899688720703,159.5 -159.5,88.08899688720703 -159.5,0 C-159.5,-88.08899688720703 -88.08899688720703,-159.5 0,-159.5z"></path></g></g><g style="display: block;" transform="matrix(1,0,0,1,137,213)" opacity="1"><g opacity="1" transform="matrix(1,0,0,1,37.7400016784668,283.2300109863281)"><path stroke-linecap="round" stroke-linejoin="round" fill-opacity="0" stroke="rgb(84,86,91)" stroke-opacity="1" stroke-width="5.011" d=" M1.2899999618530273,-7.269999980926514 C1.2899999618530273,-7.269999980926514 -1.2899999618530273,7.269999980926514 -1.2899999618530273,7.269999980926514"></path></g><g opacity="1" transform="matrix(1,0,0,1,50.75,290.5)"><path stroke-linecap="round" stroke-linejoin="round" fill-opacity="0" stroke="rgb(84,86,91)" stroke-opacity="1" stroke-width="5.011" d=" M-22.979999542236328,0 C-22.979999542236328,0 22.979999542236328,0 22.979999542236328,0"></path></g><g opacity="1" transform="matrix(1,0,0,1,50.63999938964844,268.32501220703125)"><path fill="rgb(255,255,255)" fill-opacity="1" d=" M-53.86000061035156,-6.425000190734863 C-53.86000061035156,-6.425000190734863 53.86000061035156,-6.425000190734863 53.86000061035156,-6.425000190734863 C55.7760009765625,-6.425000190734863 57.33000183105469,-4.870999813079834 57.33000183105469,-2.9549999237060547 C57.33000183105469,-2.9549999237060547 57.33000183105469,2.9549999237060547 57.33000183105469,2.9549999237060547 C57.33000183105469,4.870999813079834 55.7760009765625,6.425000190734863 53.86000061035156,6.425000190734863 C53.86000061035156,6.425000190734863 -53.86000061035156,6.425000190734863 -53.86000061035156,6.425000190734863 C-55.7760009765625,6.425000190734863 -57.33000183105469,4.870999813079834 -57.33000183105469,2.9549999237060547 C-57.33000183105469,2.9549999237060547 -57.33000183105469,-2.9549999237060547 -57.33000183105469,-2.9549999237060547 C-57.33000183105469,-4.870999813079834 -55.7760009765625,-6.425000190734863 -53.86000061035156,-6.425000190734863z"></path></g><g opacity="1" transform="matrix(1,0,0,1,50.63999938964844,234.80999755859375)"><path stroke-linecap="round" stroke-linejoin="round" fill-opacity="0" stroke="rgb(84,86,91)" stroke-opacity="1" stroke-width="5.011" d=" M-53.779998779296875,-41.150001525878906 C-53.779998779296875,-41.150001525878906 53.779998779296875,-41.150001525878906 53.779998779296875,-41.150001525878906 C55.74100112915039,-41.150001525878906 57.33000183105469,-39.56100082397461 57.33000183105469,-37.599998474121094 C57.33000183105469,-37.599998474121094 57.33000183105469,37.599998474121094 57.33000183105469,37.599998474121094 C57.33000183105469,39.56100082397461 55.74100112915039,41.150001525878906 53.779998779296875,41.150001525878906 C53.779998779296875,41.150001525878906 -53.779998779296875,41.150001525878906 -53.779998779296875,41.150001525878906 C-55.74100112915039,41.150001525878906 -57.33000183105469,39.56100082397461 -57.33000183105469,37.599998474121094 C-57.33000183105469,37.599998474121094 -57.33000183105469,-37.599998474121094 -57.33000183105469,-37.599998474121094 C-57.33000183105469,-39.56100082397461 -55.74100112915039,-41.150001525878906 -53.779998779296875,-41.150001525878906z"></path></g><g opacity="1" transform="matrix(1,0,0,1,50.6349983215332,261.8999938964844)"><path stroke-linecap="round" stroke-linejoin="round" fill-opacity="0" stroke="rgb(84,86,91)" stroke-opacity="1" stroke-width="5.011" d=" M-57.32500076293945,0 C-57.32500076293945,0 57.32500076293945,0 57.32500076293945,0"></path></g></g><g style="display: block;" transform="matrix(1,0,0,1,225.73800659179688,464.55999755859375)" opacity="1"><g opacity="1" transform="matrix(1,0,0,1,0,0)"><path fill="rgb(255,255,255)" fill-opacity="1" d=" M-19.92799949645996,-40.15999984741211 C-19.92799949645996,-40.15999984741211 -10.008000373840332,-26.360000610351562 -10.008000373840332,-26.360000610351562 C-10.008000373840332,-26.360000610351562 -11.097999572753906,-22.149999618530273 -14.097999572753906,-19.889999389648438 C-17.097999572753906,-17.6299991607666 -21.437999725341797,-17.75 -21.437999725341797,-17.75 C-21.437999725341797,-17.75 -31.968000411987305,-31.079999923706055 -31.968000411987305,-31.079999923706055 C-36.678001403808594,-19.889999389648438 -28.558000564575195,-6.889999866485596 -27.027999877929688,-6.130000114440918 C-26.027999877929688,-5.610000133514404 -18.45800018310547,-5.260000228881836 -13.817999839782715,-5.130000114440918 C-13.817999839782715,-5.130000114440918 17.802000045776367,36.869998931884766 17.802000045776367,36.869998931884766 C20.652000427246094,40.64500045776367 26.020000457763672,41.4010009765625 29.802000045776367,38.560001373291016 C29.802000045776367,38.560001373291016 30.011999130249023,38.400001525878906 30.011999130249023,38.400001525878906 C33.78900146484375,35.54999923706055 34.54100036621094,30.17799949645996 31.691999435424805,26.399999618530273 C31.691999435424805,26.399999618530273 0.07199999690055847,-15.600000381469727 0.07199999690055847,-15.600000381469727 C1.1920000314712524,-20.110000610351562 2.931999921798706,-27.43000030517578 2.7219998836517334,-28.600000381469727 C2.3919999599456787,-30.209999084472656 -7.868000030517578,-41.560001373291016 -19.92799949645996,-40.15999984741211z"></path><path stroke-linecap="round" stroke-linejoin="round" fill-opacity="0" stroke="rgb(118,188,67)" stroke-opacity="1" stroke-width="5.011" d=" M-19.92799949645996,-40.15999984741211 C-19.92799949645996,-40.15999984741211 -10.008000373840332,-26.360000610351562 -10.008000373840332,-26.360000610351562 C-10.008000373840332,-26.360000610351562 -11.097999572753906,-22.149999618530273 -14.097999572753906,-19.889999389648438 C-17.097999572753906,-17.6299991607666 -21.437999725341797,-17.75 -21.437999725341797,-17.75 C-21.437999725341797,-17.75 -31.968000411987305,-31.079999923706055 -31.968000411987305,-31.079999923706055 C-36.678001403808594,-19.889999389648438 -28.558000564575195,-6.889999866485596 -27.027999877929688,-6.130000114440918 C-26.027999877929688,-5.610000133514404 -18.45800018310547,-5.260000228881836 -13.817999839782715,-5.130000114440918 C-13.817999839782715,-5.130000114440918 17.802000045776367,36.869998931884766 17.802000045776367,36.869998931884766 C20.652000427246094,40.64500045776367 26.020000457763672,41.4010009765625 29.802000045776367,38.560001373291016 C29.802000045776367,38.560001373291016 30.011999130249023,38.400001525878906 30.011999130249023,38.400001525878906 C33.78900146484375,35.54999923706055 34.54100036621094,30.17799949645996 31.691999435424805,26.399999618530273 C31.691999435424805,26.399999618530273 0.07199999690055847,-15.600000381469727 0.07199999690055847,-15.600000381469727 C1.1920000314712524,-20.110000610351562 2.931999921798706,-27.43000030517578 2.7219998836517334,-28.600000381469727 C2.3919999599456787,-30.209999084472656 -7.868000030517578,-41.560001373291016 -19.92799949645996,-40.15999984741211z"></path></g></g><g style="display: block;" transform="matrix(1,0,0,1,139,175)" opacity="1"><g opacity="1" transform="matrix(1,0,0,1,223.36000061035156,153.55999755859375)"><path fill="rgb(118,119,123)" fill-opacity="1" d=" M0,-18.139999389648438 C10.017999649047852,-18.139999389648438 18.139999389648438,-10.017999649047852 18.139999389648438,0 C18.139999389648438,10.017999649047852 10.017999649047852,18.139999389648438 0,18.139999389648438 C-10.017999649047852,18.139999389648438 -18.139999389648438,10.017999649047852 -18.139999389648438,0 C-18.139999389648438,-10.017999649047852 -10.017999649047852,-18.139999389648438 0,-18.139999389648438z"></path></g><g opacity="1" transform="matrix(1,0,0,1,221.5050048828125,154.9250030517578)"><path stroke-linecap="round" stroke-linejoin="round" fill-opacity="0" stroke="rgb(255,255,255)" stroke-opacity="1" stroke-width="2.88" d=" M5.994999885559082,8.395000457763672 C5.994999885559082,8.395000457763672 7.764999866485596,-6.545000076293945 7.764999866485596,-6.545000076293945 C7.764999866485596,-6.545000076293945 -7.764999866485596,-8.395000457763672 -7.764999866485596,-8.395000457763672"></path></g></g><g transform="matrix(1,0,0,1,0,48)" opacity="1" style="display: block;"><g opacity="1" transform="matrix(1,0,0,1,0,0)"><g opacity="1" transform="matrix(1,0,0,1,476.95001220703125,509.45001220703125)"><path fill="rgb(84,86,91)" fill-opacity="1" d=" M11.350000381469727,21.549999237060547 C11.350000381469727,21.549999237060547 7.550000190734863,8.75 7.550000190734863,8.75 C7.550000190734863,8.75 -7.849999904632568,8.75 -7.849999904632568,8.75 C-7.849999904632568,8.75 -11.649999618530273,21.549999237060547 -11.649999618530273,21.549999237060547 C-11.649999618530273,21.549999237060547 -17.450000762939453,21.549999237060547 -17.450000762939453,21.549999237060547 C-17.450000762939453,21.549999237060547 -4.050000190734863,-21.549999237060547 -4.050000190734863,-21.549999237060547 C-4.050000190734863,-21.549999237060547 4.050000190734863,-21.549999237060547 4.050000190734863,-21.549999237060547 C4.050000190734863,-21.549999237060547 17.450000762939453,21.549999237060547 17.450000762939453,21.549999237060547 C17.450000762939453,21.549999237060547 11.350000381469727,21.549999237060547 11.350000381469727,21.549999237060547z M-6.349999904632568,3.75 C-6.349999904632568,3.75 6.050000190734863,3.75 6.050000190734863,3.75 C6.050000190734863,3.75 -0.05000000074505806,-16.75 -0.05000000074505806,-16.75 C-0.05000000074505806,-16.75 -0.15000000596046448,-16.75 -0.15000000596046448,-16.75 C-0.15000000596046448,-16.75 -6.349999904632568,3.75 -6.349999904632568,3.75z"></path></g><g opacity="1" transform="matrix(1,0,0,1,512.7999877929688,509.54998779296875)"><path fill="rgb(84,86,91)" fill-opacity="1" d=" M8.899999618530273,-10.850000381469727 C7,-15.25 4.5,-17.350000381469727 -0.20000000298023224,-17.350000381469727 C-4.900000095367432,-17.350000381469727 -8.199999809265137,-15.050000190734863 -8.199999809265137,-10.850000381469727 C-8.199999809265137,-1.0499999523162842 15,-5.75 15,9.75 C15,18.049999237060547 9,22.25 0.4000000059604645,22.25 C-7.800000190734863,22.25 -12.300000190734863,18.850000381469727 -15,11.050000190734863 C-15,11.050000190734863 -9.699999809265137,9.25 -9.699999809265137,9.25 C-8,14.649999618530273 -5.199999809265137,17.25 0.6000000238418579,17.25 C5.800000190734863,17.25 9.399999618530273,14.75 9.399999618530273,10.050000190734863 C9.399999618530273,-0.75 -13.600000381469727,4.449999809265137 -13.600000381469727,-10.75 C-13.600000381469727,-18.049999237060547 -8,-22.25 -0.20000000298023224,-22.25 C7.300000190734863,-22.25 11.899999618530273,-18.850000381469727 13.800000190734863,-12.550000190734863 C13.800000190734863,-12.550000190734863 8.899999618530273,-10.850000381469727 8.899999618530273,-10.850000381469727z"></path></g><g opacity="1" transform="matrix(1,0,0,1,547.2999877929688,509.54998779296875)"><path fill="rgb(84,86,91)" fill-opacity="1" d=" M8.899999618530273,-10.850000381469727 C7,-15.25 4.5,-17.350000381469727 -0.20000000298023224,-17.350000381469727 C-4.900000095367432,-17.350000381469727 -8.199999809265137,-15.050000190734863 -8.199999809265137,-10.850000381469727 C-8.199999809265137,-1.0499999523162842 15,-5.75 15,9.75 C15,18.049999237060547 9,22.25 0.4000000059604645,22.25 C-7.800000190734863,22.25 -12.300000190734863,18.850000381469727 -15,11.050000190734863 C-15,11.050000190734863 -9.699999809265137,9.25 -9.699999809265137,9.25 C-8,14.649999618530273 -5.199999809265137,17.25 0.6000000238418579,17.25 C5.800000190734863,17.25 9.399999618530273,14.75 9.399999618530273,10.050000190734863 C9.399999618530273,-0.75 -13.600000381469727,4.449999809265137 -13.600000381469727,-10.75 C-13.600000381469727,-18.049999237060547 -8,-22.25 -0.20000000298023224,-22.25 C7.300000190734863,-22.25 11.899999618530273,-18.850000381469727 13.800000190734863,-12.550000190734863 C13.800000190734863,-12.550000190734863 8.899999618530273,-10.850000381469727 8.899999618530273,-10.850000381469727z"></path></g><g opacity="1" transform="matrix(1,0,0,1,583.9000244140625,509.45001220703125)"><path fill="rgb(84,86,91)" fill-opacity="1" d=" M-13.5,21.549999237060547 C-13.5,21.549999237060547 -13.5,-21.549999237060547 -13.5,-21.549999237060547 C-13.5,-21.549999237060547 12.5,-21.549999237060547 12.5,-21.549999237060547 C12.5,-21.549999237060547 12.5,-16.549999237060547 12.5,-16.549999237060547 C12.5,-16.549999237060547 -7.699999809265137,-16.549999237060547 -7.699999809265137,-16.549999237060547 C-7.699999809265137,-16.549999237060547 -7.699999809265137,-3.25 -7.699999809265137,-3.25 C-7.699999809265137,-3.25 6.800000190734863,-3.25 6.800000190734863,-3.25 C6.800000190734863,-3.25 6.800000190734863,1.649999976158142 6.800000190734863,1.649999976158142 C6.800000190734863,1.649999976158142 -7.699999809265137,1.649999976158142 -7.699999809265137,1.649999976158142 C-7.699999809265137,1.649999976158142 -7.699999809265137,16.549999237060547 -7.699999809265137,16.549999237060547 C-7.699999809265137,16.549999237060547 13.5,16.549999237060547 13.5,16.549999237060547 C13.5,16.549999237060547 13.5,21.549999237060547 13.5,21.549999237060547 C13.5,21.549999237060547 -13.5,21.549999237060547 -13.5,21.549999237060547z"></path></g><g opacity="1" transform="matrix(1,0,0,1,615.7000122070312,509.5)"><path fill="rgb(84,86,91)" fill-opacity="1" d=" M-2.9000000953674316,21.5 C-2.9000000953674316,21.5 -2.9000000953674316,-16.5 -2.9000000953674316,-16.5 C-2.9000000953674316,-16.5 -15.199999809265137,-16.5 -15.199999809265137,-16.5 C-15.199999809265137,-16.5 -15.199999809265137,-21.5 -15.199999809265137,-21.5 C-15.199999809265137,-21.5 15.199999809265137,-21.5 15.199999809265137,-21.5 C15.199999809265137,-21.5 15.199999809265137,-16.5 15.199999809265137,-16.5 C15.199999809265137,-16.5 2.9000000953674316,-16.5 2.9000000953674316,-16.5 C2.9000000953674316,-16.5 2.9000000953674316,21.5 2.9000000953674316,21.5 C2.9000000953674316,21.5 -2.9000000953674316,21.5 -2.9000000953674316,21.5z"></path></g></g><g opacity="1" transform="matrix(1,0,0,1,0,0)"><g opacity="1" transform="matrix(1,0,0,1,411.29998779296875,581.4500122070312)"><path fill="rgb(84,86,91)" fill-opacity="1" d=" M-12.300000190734863,21.549999237060547 C-12.300000190734863,21.549999237060547 -12.300000190734863,-21.549999237060547 -12.300000190734863,-21.549999237060547 C-12.300000190734863,-21.549999237060547 -6.5,-21.549999237060547 -6.5,-21.549999237060547 C-6.5,-21.549999237060547 -6.5,16.450000762939453 -6.5,16.450000762939453 C-6.5,16.450000762939453 12.300000190734863,16.450000762939453 12.300000190734863,16.450000762939453 C12.300000190734863,16.450000762939453 12.300000190734863,21.450000762939453 12.300000190734863,21.450000762939453 C12.300000190734863,21.450000762939453 -12.300000190734863,21.450000762939453 -12.300000190734863,21.450000762939453 C-12.300000190734863,21.450000762939453 -12.300000190734863,21.549999237060547 -12.300000190734863,21.549999237060547z"></path></g><g opacity="1" transform="matrix(1,0,0,1,432.8999938964844,581.4500122070312)"><path fill="rgb(84,86,91)" fill-opacity="1" d=" M-2.9000000953674316,21.549999237060547 C-2.9000000953674316,21.549999237060547 -2.9000000953674316,-21.549999237060547 -2.9000000953674316,-21.549999237060547 C-2.9000000953674316,-21.549999237060547 2.9000000953674316,-21.549999237060547 2.9000000953674316,-21.549999237060547 C2.9000000953674316,-21.549999237060547 2.9000000953674316,21.549999237060547 2.9000000953674316,21.549999237060547 C2.9000000953674316,21.549999237060547 -2.9000000953674316,21.549999237060547 -2.9000000953674316,21.549999237060547z"></path></g><g opacity="1" transform="matrix(1,0,0,1,460.1499938964844,581.4500122070312)"><path fill="rgb(84,86,91)" fill-opacity="1" d=" M-13.350000381469727,21.549999237060547 C-13.350000381469727,21.549999237060547 -13.350000381469727,-21.549999237060547 -13.350000381469727,-21.549999237060547 C-13.350000381469727,-21.549999237060547 13.350000381469727,-21.549999237060547 13.350000381469727,-21.549999237060547 C13.350000381469727,-21.549999237060547 13.350000381469727,-16.549999237060547 13.350000381469727,-16.549999237060547 C13.350000381469727,-16.549999237060547 -7.550000190734863,-16.549999237060547 -7.550000190734863,-16.549999237060547 C-7.550000190734863,-16.549999237060547 -7.550000190734863,-3.25 -7.550000190734863,-3.25 C-7.550000190734863,-3.25 7.550000190734863,-3.25 7.550000190734863,-3.25 C7.550000190734863,-3.25 7.550000190734863,1.649999976158142 7.550000190734863,1.649999976158142 C7.550000190734863,1.649999976158142 -7.550000190734863,1.649999976158142 -7.550000190734863,1.649999976158142 C-7.550000190734863,1.649999976158142 -7.550000190734863,21.549999237060547 -7.550000190734863,21.549999237060547 C-7.550000190734863,21.549999237060547 -13.350000381469727,21.549999237060547 -13.350000381469727,21.549999237060547z"></path></g><g opacity="1" transform="matrix(1,0,0,1,493.8999938964844,581.4500122070312)"><path fill="rgb(84,86,91)" fill-opacity="1" d=" M-13.5,21.549999237060547 C-13.5,21.549999237060547 -13.5,-21.549999237060547 -13.5,-21.549999237060547 C-13.5,-21.549999237060547 12.5,-21.549999237060547 12.5,-21.549999237060547 C12.5,-21.549999237060547 12.5,-16.549999237060547 12.5,-16.549999237060547 C12.5,-16.549999237060547 -7.699999809265137,-16.549999237060547 -7.699999809265137,-16.549999237060547 C-7.699999809265137,-16.549999237060547 -7.699999809265137,-3.25 -7.699999809265137,-3.25 C-7.699999809265137,-3.25 6.800000190734863,-3.25 6.800000190734863,-3.25 C6.800000190734863,-3.25 6.800000190734863,1.649999976158142 6.800000190734863,1.649999976158142 C6.800000190734863,1.649999976158142 -7.699999809265137,1.649999976158142 -7.699999809265137,1.649999976158142 C-7.699999809265137,1.649999976158142 -7.699999809265137,16.450000762939453 -7.699999809265137,16.450000762939453 C-7.699999809265137,16.450000762939453 13.5,16.450000762939453 13.5,16.450000762939453 C13.5,16.450000762939453 13.5,21.450000762939453 13.5,21.450000762939453 C13.5,21.450000762939453 -13.5,21.450000762939453 -13.5,21.450000762939453 C-13.5,21.450000762939453 -13.5,21.549999237060547 -13.5,21.549999237060547z"></path></g><g opacity="1" transform="matrix(1,0,0,1,541.9000244140625,581.5499877929688)"><path fill="rgb(84,86,91)" fill-opacity="1" d=" M16.399999618530273,8.949999809265137 C13.800000190734863,18.950000762939453 8,22.25 0.30000001192092896,22.25 C-11.100000381469727,22.25 -16.399999618530273,13.75 -16.399999618530273,-0.25 C-16.399999618530273,-14.25 -9.899999618530273,-22.25 0.6000000238418579,-22.25 C8.5,-22.25 13.399999618530273,-18.549999237060547 15.699999809265137,-9.449999809265137 C15.699999809265137,-9.449999809265137 10.399999618530273,-8.350000381469727 10.399999618530273,-8.350000381469727 C8.5,-14.75 5.400000095367432,-17.25 0.6000000238418579,-17.25 C-6.400000095367432,-17.25 -10.600000381469727,-10.850000381469727 -10.600000381469727,-0.25 C-10.600000381469727,11.25 -7.099999904632568,17.149999618530273 0.4000000059604645,17.149999618530273 C5.599999904632568,17.149999618530273 9.199999809265137,14.449999809265137 11,7.75 C11,7.75 16.399999618530273,8.949999809265137 16.399999618530273,8.949999809265137z"></path></g><g opacity="1" transform="matrix(1,0,0,1,577.5999755859375,581.4500122070312)"><path fill="rgb(84,86,91)" fill-opacity="1" d=" M-3,21.549999237060547 C-3,21.549999237060547 -3,3.8499999046325684 -3,3.8499999046325684 C-3,3.8499999046325684 -16.399999618530273,-21.549999237060547 -16.399999618530273,-21.549999237060547 C-16.399999618530273,-21.549999237060547 -10.100000381469727,-21.549999237060547 -10.100000381469727,-21.549999237060547 C-10.100000381469727,-21.549999237060547 -0.30000001192092896,-1.75 -0.30000001192092896,-1.75 C-0.30000001192092896,-1.75 -0.20000000298023224,-1.75 -0.20000000298023224,-1.75 C-0.20000000298023224,-1.75 10.300000190734863,-21.549999237060547 10.300000190734863,-21.549999237060547 C10.300000190734863,-21.549999237060547 16.399999618530273,-21.549999237060547 16.399999618530273,-21.549999237060547 C16.399999618530273,-21.549999237060547 2.700000047683716,3.8499999046325684 2.700000047683716,3.8499999046325684 C2.700000047683716,3.8499999046325684 2.700000047683716,21.549999237060547 2.700000047683716,21.549999237060547 C2.700000047683716,21.549999237060547 -3,21.549999237060547 -3,21.549999237060547z"></path></g><g opacity="1" transform="matrix(1,0,0,1,613.5999755859375,581.5499877929688)"><path fill="rgb(84,86,91)" fill-opacity="1" d=" M16.399999618530273,8.949999809265137 C13.800000190734863,18.950000762939453 8,22.25 0.30000001192092896,22.25 C-11.100000381469727,22.25 -16.399999618530273,13.75 -16.399999618530273,-0.25 C-16.399999618530273,-14.25 -9.899999618530273,-22.25 0.6000000238418579,-22.25 C8.5,-22.25 13.399999618530273,-18.549999237060547 15.699999809265137,-9.449999809265137 C15.699999809265137,-9.449999809265137 10.399999618530273,-8.350000381469727 10.399999618530273,-8.350000381469727 C8.5,-14.75 5.400000095367432,-17.25 0.6000000238418579,-17.25 C-6.400000095367432,-17.25 -10.600000381469727,-10.850000381469727 -10.600000381469727,-0.25 C-10.600000381469727,11.25 -7.099999904632568,17.149999618530273 0.4000000059604645,17.149999618530273 C5.599999904632568,17.149999618530273 9.199999809265137,14.449999809265137 11,7.75 C11,7.75 16.399999618530273,8.949999809265137 16.399999618530273,8.949999809265137z"></path></g><g opacity="1" transform="matrix(1,0,0,1,649.9000244140625,581.4500122070312)"><path fill="rgb(84,86,91)" fill-opacity="1" d=" M-12.300000190734863,21.549999237060547 C-12.300000190734863,21.549999237060547 -12.300000190734863,-21.549999237060547 -12.300000190734863,-21.549999237060547 C-12.300000190734863,-21.549999237060547 -6.5,-21.549999237060547 -6.5,-21.549999237060547 C-6.5,-21.549999237060547 -6.5,16.450000762939453 -6.5,16.450000762939453 C-6.5,16.450000762939453 12.300000190734863,16.450000762939453 12.300000190734863,16.450000762939453 C12.300000190734863,16.450000762939453 12.300000190734863,21.450000762939453 12.300000190734863,21.450000762939453 C12.300000190734863,21.450000762939453 -12.300000190734863,21.450000762939453 -12.300000190734863,21.450000762939453 C-12.300000190734863,21.450000762939453 -12.300000190734863,21.549999237060547 -12.300000190734863,21.549999237060547z"></path></g><g opacity="1" transform="matrix(1,0,0,1,682,581.4500122070312)"><path fill="rgb(84,86,91)" fill-opacity="1" d=" M-13.5,21.549999237060547 C-13.5,21.549999237060547 -13.5,-21.549999237060547 -13.5,-21.549999237060547 C-13.5,-21.549999237060547 12.5,-21.549999237060547 12.5,-21.549999237060547 C12.5,-21.549999237060547 12.5,-16.549999237060547 12.5,-16.549999237060547 C12.5,-16.549999237060547 -7.699999809265137,-16.549999237060547 -7.699999809265137,-16.549999237060547 C-7.699999809265137,-16.549999237060547 -7.699999809265137,-3.25 -7.699999809265137,-3.25 C-7.699999809265137,-3.25 6.800000190734863,-3.25 6.800000190734863,-3.25 C6.800000190734863,-3.25 6.800000190734863,1.649999976158142 6.800000190734863,1.649999976158142 C6.800000190734863,1.649999976158142 -7.699999809265137,1.649999976158142 -7.699999809265137,1.649999976158142 C-7.699999809265137,1.649999976158142 -7.699999809265137,16.450000762939453 -7.699999809265137,16.450000762939453 C-7.699999809265137,16.450000762939453 13.5,16.450000762939453 13.5,16.450000762939453 C13.5,16.450000762939453 13.5,21.450000762939453 13.5,21.450000762939453 C13.5,21.450000762939453 -13.5,21.450000762939453 -13.5,21.450000762939453 C-13.5,21.450000762939453 -13.5,21.549999237060547 -13.5,21.549999237060547z"></path></g></g></g></g></svg>